<svg xmlns="http://www.w3.org/2000/svg" width="116.068" height="16.287" viewBox="0 0 116.068 16.287"><g transform="translate(0)"><path d="M359.058,559.562h0c-2.463-.548-3.407-1.327-3.784-2.69-.316-1.22-.078-1.979.773-2.463a4.458,4.458,0,0,1,1.364-.36c.1-.01.2-.013.3-.016a4.689,4.689,0,0,1,1.34.156,7.549,7.549,0,0,1,4.868,4.551h.339v-4.913h-.339l-.09.333a.453.453,0,0,1-.579.256,7.3,7.3,0,0,0-1.59-.487,16.014,16.014,0,0,0-2.591-.318c-.507-.006-.951,0-1.358.039-.1.009-.2.018-.3.03a4.859,4.859,0,0,0-2.277.87,4.568,4.568,0,0,0-2.1,3.184c-.339,2.439,1.424,4.432,5.078,5.332a9.618,9.618,0,0,1,4.31,2.25,2.512,2.512,0,0,1,1,2.392,1.684,1.684,0,0,1-.8,1.065,5.221,5.221,0,0,1-3.91.484,7.342,7.342,0,0,1-1.967-.773,7.683,7.683,0,0,1-1.238-.913,9.464,9.464,0,0,1-2.11-3.133c-.07-.154-.134-.294-.194-.417h-.335v5.625h.373l.111-.356a.432.432,0,0,1,.571-.273,10.244,10.244,0,0,0,1.891.52,19.127,19.127,0,0,0,2.175.308c.093.012.189.02.29.023.225.007.459.01.7.01,3.689,0,5.562-1.174,6.072-3.807.675-3.5-1.062-5.387-6-6.509" transform="translate(-352.867 -553.61)" fill="#083140"/><path d="M705.576,567.744V557.151h0v0a2.289,2.289,0,0,1,2.285-2.289v-.325h-7.77v.332a2.288,2.288,0,0,1,2.15,2.282c0,.029,0,10.6,0,10.6a2.288,2.288,0,0,1-2.145,2.282v.331h7.77v-.324a2.289,2.289,0,0,1-2.289-2.289" transform="translate(-616.967 -554.312)" fill="#083140"/><path d="M827.838,615.635v-.324a2.287,2.287,0,0,1-2.037-1.249l-1.062,1.572Z" transform="translate(-711.771 -599.59)" fill="#083140"/><path d="M736.85,605.522v.323h4.741l.7-4.621-.315-.033c-.116.357-1.638,4.038-5.127,4.33" transform="translate(-644.923 -589.801)" fill="#083140"/><path d="M741.146,558.891l.328-.041-.483-4.317h-4.142v.325a5.928,5.928,0,0,1,4.3,4.033" transform="translate(-644.922 -554.312)" fill="#083140"/><path d="M661.169,554.865a2.287,2.287,0,0,1,2.15,2.282c0,.029,0,10.6,0,10.6a2.287,2.287,0,0,1-2.145,2.282v.331h7.77v-.324a2.289,2.289,0,0,1-2.289-2.289V557.151h0v0a2.29,2.29,0,0,1,2.285-2.289v-.325h-7.77Z" transform="translate(-587.36 -554.312)" fill="#083140"/><path d="M727.606,575.853h-.38v.333h.38a3.334,3.334,0,0,1,3.334,3.328h.334v-6.7h-.344a3.25,3.25,0,0,1-3.324,3.034" transform="translate(-637.603 -568.22)" fill="#083140"/><path d="M554.547,554.865a2.287,2.287,0,0,1,2.15,2.282c0,.029,0,10.6,0,10.6a2.287,2.287,0,0,1-2.145,2.282v.333h7.77v-.326a2.289,2.289,0,0,1-2.289-2.289V557.151h0v0a2.29,2.29,0,0,1,2.285-2.289v-.325h-7.77Z" transform="translate(-506.264 -554.312)" fill="#083140"/><path d="M489.251,588.725v-5.448h-.323v5.448c0,1.216-.87,3.164-2.674,3.164v.333h5.672v-.333c-1.8,0-2.674-1.948-2.674-3.164" transform="translate(-454.32 -576.175)" fill="#083140"/><path d="M462.2,558.03v6.5h.323v-6.5c0-1.216.87-3.164,2.674-3.164v-.333H459.53v.333c1.8,0,2.674,1.948,2.674,3.164" transform="translate(-433.995 -554.312)" fill="#083140"/><path d="M596.068,588.725v-5.448h-.323v5.448c0,1.216-.87,3.164-2.674,3.164v.333h5.672v-.333c-1.8,0-2.674-1.948-2.674-3.164" transform="translate(-535.564 -576.175)" fill="#083140"/><path d="M781.343,569.485h0c-.472-.385-3.465-6.039-3.465-6.039s-2.92-1.161-3.057-1.168a8.761,8.761,0,0,0,3.151-.813,3.115,3.115,0,0,0,1.223-2.661,3.48,3.48,0,0,0-.9-2.636,5.224,5.224,0,0,0-3.845-1.635h-8.807v.332a2.288,2.288,0,0,1,2.15,2.282c0,.029,0,10.6,0,10.6a2.288,2.288,0,0,1-2.145,2.282v.331h7.771v-.324a2.289,2.289,0,0,1-2.29-2.289V557.151h0v0c0-1.263.67-2.289,1.932-2.289,1.389,0,3.078.861,3.078,3.518a3.724,3.724,0,0,1-3.983,3.568v.333h.046c.449,0,1.439.572,2.205,2.083l3.288,6h5.134v-.322a2.27,2.27,0,0,1-1.481-.55" transform="translate(-666.819 -554.312)" fill="#083140"/><path d="M501.358,565.9l-6.367-11.368H489.36v.332a2.268,2.268,0,0,1,.876.236,6.158,6.158,0,0,1,1.915,1.644,23.606,23.606,0,0,1,1.465,2.371l6.321,11.462,4.355-10.952v-.741Z" transform="translate(-456.683 -554.313)" fill="#083140"/><path d="M608.1,565.9l-6.367-11.368h-5.631v.332a2.268,2.268,0,0,1,.876.236,6.157,6.157,0,0,1,1.915,1.644,23.63,23.63,0,0,1,1.465,2.371l6.321,11.462,4.355-10.952v-.741Z" transform="translate(-537.875 -554.313)" fill="#083140"/><path d="M418.522,569.766a4.987,4.987,0,0,1-.623-.014c-.082-.007-.161-.016-.239-.026l-.047-.006h0a3.236,3.236,0,0,1-1.819-.836c-.964-.9-1.526-3.321-1.526-5.558v-6.065h0v0a2.306,2.306,0,0,1,2.3-2.307v-.328h-8.139v.335h.31a2.306,2.306,0,0,1,2.166,2.3c0,.029,0,6.065,0,6.065v0h0c0,2.427.406,4.251,1.32,5.421a6.665,6.665,0,0,0,8.4.79v-.505A3.585,3.585,0,0,1,418.522,569.766Z" transform="translate(-395.131 -554.382)" fill="#083140"/></g></svg>