<svg xmlns="http://www.w3.org/2000/svg" width="50.032" height="50.012" viewBox="0 0 50.032 50.012"><g transform="translate(-234.968 335.012)"><path d="M284-306h-1v-9a1,1,0,0,0-2,0v5h-3v-2a1,1,0,0,0-2,0v2h-3v-3a1,1,0,0,0-2,0v9h-3v-2a1,1,0,0,0-2,0v2h-3v-4a1,1,0,0,0-2,0v8h-1a1,1,0,0,0-1,1v13a1,1,0,0,0,1,1h24a1,1,0,0,0,1-1v-19A1,1,0,0,0,284-306Zm-3-2v2h-3v-2Zm-5,0v2h-3v-2Zm-5,6v2h-3v-2Zm-8,0h3v2h-3Zm20,15H261v-11h11a1,1,0,0,0,1-1v-5h10Z" fill="#083140"/><path d="M269-311v-4a1,1,0,0,0-1-1h-6v-6h19a1,1,0,0,0,1-1c0-2.1.134-2.541-.542-2.889-6.339-3.262-5.947-3.111-6.288-3.111H249.461l-3.624-5.547c-.381-.582-.83-.453-2.837-.453a1,1,0,0,0-1,1v5c-3.357,0-3.412-.093-3.8.3-3.782,3.885-3.2,2.723-3.2,5.7a1,1,0,0,0,1,1h6v30h-2a1,1,0,0,0-1,1v5a1,1,0,0,0,1,1h12a1,1,0,0,0,1-1v-5a1,1,0,0,0-1-1h-2v-30h10v6h-6a1,1,0,0,0-1,1v4a1,1,0,0,0,1,1h14A1,1,0,0,0,269-311Zm-25-22c.643,0,.069-.6,3.072,4H244Zm-4.658,6h35.586c5.83,3,5.072,2.454,5.072,3H237C237-324.791,236.617-324.2,239.342-327Zm8.244,5L244-318.414V-322Zm-3.172,18L248-307.586v7.172Zm3.172,6L244-294.414v-7.172ZM244-306.414v-7.172L247.586-310Zm.414-9.586L248-319.586v7.172ZM251-287H241v-3h10Zm-6.586-5L248-295.586V-292ZM267-312H255v-2h12Z" fill="#083140"/></g></svg>