<svg xmlns="http://www.w3.org/2000/svg" width="56" height="50.016" viewBox="0 0 56 50.016"><g transform="translate(-4 221)"><path d="M59-179H50v-35.76A6.247,6.247,0,0,0,43.76-221H10a6.006,6.006,0,0,0-6,6v2a1,1,0,0,0,1,1h9v35a6.005,6.005,0,0,0,1.757,4.251A5.831,5.831,0,0,0,20-171H54a6.006,6.006,0,0,0,6-6v-1A1,1,0,0,0,59-179ZM6-214v-1a4,4,0,0,1,4-4,3.991,3.991,0,0,1,4,4v1Zm10,37c0-40.968.574-39.637-1.522-42H43.76A4.245,4.245,0,0,1,48-214.76V-179H25a1,1,0,0,0-1,1v.8a4.406,4.406,0,0,1-2.894,4.021A3.972,3.972,0,0,1,16-177Zm38,4H24.468A5.978,5.978,0,0,0,26-177H58A4,4,0,0,1,54-173Z" fill="#083140"/><path d="M21-196H43a1,1,0,0,0,0-2H21A1,1,0,0,0,21-196Z" fill="#083140"/><path d="M21-191H43a1,1,0,0,0,0-2H21A1,1,0,0,0,21-191Z" fill="#083140"/><path d="M24-207h2v5a1,1,0,0,0,1,1H37a1,1,0,0,0,1-1v-5c1.631,0,2.608.226,2.936-.648a1,1,0,0,0-.277-1.1l-8-7a1,1,0,0,0-1.318,0l-8,7A1,1,0,0,0,24-207Zm8-6.671c6.159,5.389,5.483,4.671,5,4.671a1,1,0,0,0-1,1v5H34v-3a1,1,0,0,0-1-1H31a1,1,0,0,0-1,1v3H28v-5a1,1,0,0,0-1-1C26.515-209,25.862-208.3,32-213.671Z" fill="#083140"/><path d="M54.168-184.445a1,1,0,0,0,1.664,0C57.691-187.233,58-187.525,58-188v-18a3,3,0,0,0-3-3,3,3,0,0,0-3,3v18C52-187.588,51.979-187.729,54.168-184.445ZM54-206a1,1,0,0,1,2,0v17.7l-1,1.5-1-1.5Z" fill="#083140"/><path d="M39-184c-7.687,0-5,.314-5-1a1,1,0,0,0-1.707-.707l-.356.356a1,1,0,0,0-1.644-.356l-.293.293V-188a1,1,0,0,0-1.9-.447l-3,6A1,1,0,0,0,26-181c.791,0,.864-.49,2-2.764,0,.685-.118,1.383.617,1.688a1,1,0,0,0,1.09-.217l.356-.356a1,1,0,0,0,1.644.356l.24-.24c.851.684,1.7.533,7.053.533A1,1,0,0,0,39-184Z" fill="#083140"/></g></svg>