<svg xmlns="http://www.w3.org/2000/svg" width="52.231" height="50.444" viewBox="0 0 52.231 50.444"><g transform="translate(-5.89 -120.556)"><path d="M54.335,142.492a1,1,0,0,0,1.386-.276c2.413-3.608,2.478-3.528,2.37-4.071-.122-.614,1.613.722-25.536-17.377-.792-.53,1.091-1.468-26.22,16.74a1,1,0,0,0-.276,1.388l2.22,3.32a1,1,0,0,0,1.386.276L12,140.936V164H8a1,1,0,0,0-1,1v5a1,1,0,0,0,1,1H56a1,1,0,0,0,1-1v-5a1,1,0,0,0-1-1H52V140.936ZM9.387,140.274l-1.11-1.658L32,122.8l23.723,15.814-1.11,1.658c-23.8-15.868-22.373-15.237-23.168-14.706ZM55,169H9v-3H55Zm-5-29.4V164H14V139.6l18-12Z" fill="#083140"/><path d="M32.5,155H28a1,1,0,0,0,0,2h3v3a1,1,0,0,0,2,0v-3.051A4.488,4.488,0,0,0,32.5,148h-1a2.5,2.5,0,0,1,0-5H36a1,1,0,0,0,0-2H33v-3a1,1,0,0,0-2,0v3.051A4.488,4.488,0,0,0,31.5,150h1a2.5,2.5,0,0,1,0,5Z" fill="#083140"/></g></svg>