<svg xmlns="http://www.w3.org/2000/svg" width="49.979" height="50.035" viewBox="0 0 49.979 50.035"><path d="M398.625-298.781l-10-8a1,1,0,0,0-1.25,0l-5.522,4.418A17.587,17.587,0,0,0,372-308.525v-1.316a9.994,9.994,0,0,0,5.8-7.189,3.483,3.483,0,0,0,1.2-6.619V-327a8.009,8.009,0,0,0-8-8h-7a7.008,7.008,0,0,0-7,7c0,5.786.27,3.776-.977,5.023a3.494,3.494,0,0,0,2.181,5.947,9.989,9.989,0,0,0,5.8,7.189c0,2.223.643.619-3.415,2.461a17.824,17.824,0,0,0-10.068,12.971c-1.6,8.763-1.706,8.545-1.285,9.05.466.559-2.742.359,45.768.359a1,1,0,0,0,1-1v-11h2A1,1,0,0,0,398.625-298.781ZM388-304.719c8.018,6.414,7.23,5.719,7,5.719H380.854C381.738-299.706,378.476-297.1,388-304.719Zm-7.707,3.6c-2.96,2.368-3.544,2.568-3.236,3.446.291.836.976.669,2.943.669v10h-7.142c-2.307-14.993-2.019-11.073-1.143-13.118C374.6-298.058,374.567-298,375-298a1,1,0,0,0,1-1v-5.812A15.678,15.678,0,0,1,380.293-301.115ZM370-309.2c0,1.209.331.475-2.023,3.548-2.3-3.057-1.977-2.32-1.977-3.548A10.21,10.21,0,0,0,370-309.2Zm-3.992,7.854L368-302.771l1.992,1.423A1.492,1.492,0,0,1,368.5-300h-1A1.5,1.5,0,0,1,366.008-301.348ZM374-305.806v4.862l-4.6-3.283,1.865-2.434A14.877,14.877,0,0,1,374-305.806Zm4-13.279v-2.83A1.5,1.5,0,0,1,378-319.085ZM377-327v3h-7a5.005,5.005,0,0,1-5-5v-4h6A6.006,6.006,0,0,1,377-327Zm-14-5.9c0,3.277.416,5.375-1.336,7.275A5.146,5.146,0,0,1,359-324.1V-328A5.008,5.008,0,0,1,363-332.9Zm-5,10.984v2.83A1.5,1.5,0,0,1,358-321.915ZM360-319c0-3.455-.059-3.275.041-3.3A7.1,7.1,0,0,0,364-325.4a6.987,6.987,0,0,0,6,3.4h6v3a8.009,8.009,0,0,1-9.353,7.883A8,8,0,0,1,360-319Zm4.717,12.341,1.847,2.455L362-300.944v-4.862A14.8,14.8,0,0,1,364.717-306.659ZM352.483-294.05A15.817,15.817,0,0,1,360-304.8v5.8a1,1,0,0,0,1,1c.493,0,.61-.207,3.286-2.119.878,2.033,1.162-1.867-1.144,13.119H351.2ZM365.166-287l1.692-11h2.284l1.692,11ZM387-287v-5h2v5Zm7,0h-3v-6a1,1,0,0,0-1-1h-4a1,1,0,0,0-1,1v6h-3v-10h12Z" transform="translate(-349.021 335)" fill="#083140"/></svg>