<svg xmlns="http://www.w3.org/2000/svg" width="53.302" height="50.563" viewBox="0 0 53.302 50.563">
  <g id="Group_4101" data-name="Group 4101" transform="translate(-487.043 -89.687)">
    <path id="Path_31" data-name="Path 31" d="M671.406,256.33a4.146,4.146,0,1,0,4.146,4.146,4.146,4.146,0,0,0-4.146-4.146" transform="translate(-135.207 -125.023)" fill="#083140"/>
    <path id="Path_32" data-name="Path 32" d="M506.284,108.186h0c-7.656-1.7-10.589-4.124-11.762-8.36-.984-3.791-.242-6.15,2.4-7.654a13.861,13.861,0,0,1,4.238-1.118c.307-.03.617-.039.927-.049a14.55,14.55,0,0,1,4.165.484c9.549,2.51,13.587,10.617,15.129,14.144h1.052V90.362h-1.052l-.278,1.036a1.408,1.408,0,0,1-1.8.795,22.639,22.639,0,0,0-4.941-1.513,49.689,49.689,0,0,0-8.054-.987c-1.576-.02-2.956.01-4.22.12-.315.027-.626.056-.927.094a15.1,15.1,0,0,0-7.076,2.7c-3.778,2.592-5.974,5.922-6.528,9.9-1.055,7.58,4.427,13.775,15.782,16.571a29.9,29.9,0,0,1,13.4,6.995c2.573,2.33,3.616,4.831,3.1,7.432a5.235,5.235,0,0,1-2.471,3.311c-2.81,1.812-7.389,2.645-12.153,1.5a22.826,22.826,0,0,1-6.115-2.4,23.836,23.836,0,0,1-3.848-2.839,29.415,29.415,0,0,1-6.559-9.738c-.219-.478-.418-.913-.6-1.3h-1.04v17.483H488.2l.345-1.107a1.343,1.343,0,0,1,1.776-.849,31.8,31.8,0,0,0,5.877,1.617,59.521,59.521,0,0,0,6.76.957c.29.036.588.063.9.072q1.047.032,2.189.032c11.466,0,17.287-3.65,18.871-11.833,2.1-10.88-3.3-16.741-18.637-20.231" transform="translate(0 0)" fill="#083140"/>
  </g>
</svg>
