<svg xmlns="http://www.w3.org/2000/svg" width="18.426" height="12.441" viewBox="0 0 18.426 12.441">
  <g id="Group_3" data-name="Group 3" transform="translate(-483 -345.406)">
    <path id="Path_33" data-name="Path 33" d="M632.866,365.994l-.2.419-6.5-4.846,6.558-6.18.144.2Z" transform="translate(-131.44 -9.164)" fill="#fff"/>
    <path id="Path_34" data-name="Path 34" d="M483,355.563l.138-.206,6.561,6.183-6.5,4.847-.2-.421Z" transform="translate(0 -9.136)" fill="#fff"/>
    <path id="Path_35" data-name="Path 35" d="M493.806,345.406h16.641c-.118.136-.178.218-.25.286q-3.288,3.1-6.58,6.2a1.9,1.9,0,0,1-2.952.013q-3.3-3.1-6.58-6.2C494.008,345.633,493.941,345.551,493.806,345.406Z" transform="translate(-9.921)" fill="#fff"/>
    <path id="Path_36" data-name="Path 36" d="M510.48,442.678H493.911l-.032-.1,6.4-4.772a3,3,0,0,0,3.846,0l6.391,4.765Z" transform="translate(-9.988 -84.83)" fill="#fff"/>
  </g>
</svg>
