<svg xmlns="http://www.w3.org/2000/svg" width="24.616" height="17.97" viewBox="0 0 24.616 17.97">
  <path id="quote" d="M30.937,29.17a5.328,5.328,0,0,0-4.078-1.859,5.2,5.2,0,0,0-5.032,3.327,5.163,5.163,0,0,0-.376,1.912,5.278,5.278,0,0,0,1.123,3.4A4.5,4.5,0,0,0,25.5,37.628l.418.027.36.057c.556.073.832.287.832.636q0,.558-1.111,1.748a13.226,13.226,0,0,1-3.694,2.579,1.612,1.612,0,0,0-1.054,1.387,1.153,1.153,0,0,0,.36.874,1.271,1.271,0,0,0,.916.345,7.854,7.854,0,0,0,3.825-1.61,15.242,15.242,0,0,0,4.6-4.591,9.911,9.911,0,0,0,1.717-5.339,6.923,6.923,0,0,0-.471-2.483,6.379,6.379,0,0,0-1.272-2.093Zm13.2,0A5.268,5.268,0,0,0,40.1,27.311a5.3,5.3,0,0,0-5.4,5.239,5.378,5.378,0,0,0,1.1,3.411,4.294,4.294,0,0,0,2.9,1.663l.445.027.33.057c.552.073.832.287.832.636q0,.558-1.081,1.748a14.331,14.331,0,0,1-3.679,2.579A1.618,1.618,0,0,0,34.5,44.059a1.167,1.167,0,0,0,.36.874,1.262,1.262,0,0,0,.912.345,7.821,7.821,0,0,0,3.817-1.61,15.032,15.032,0,0,0,4.58-4.591,9.984,9.984,0,0,0,1.7-5.339,6.923,6.923,0,0,0-.471-2.483,6.315,6.315,0,0,0-1.272-2.093Z" transform="translate(-21.253 -27.311)" fill="#083140"/>
</svg>
