<svg xmlns="http://www.w3.org/2000/svg" width="950.958" height="915.094" viewBox="0 0 950.958 915.094">
  <g id="Group_4076" data-name="Group 4076" transform="translate(-277.042 -118.293)" opacity="0.05">
    <g id="Group_4075" data-name="Group 4075" transform="translate(-1932 21594.297)">
      <path id="Path_50" data-name="Path 50" d="M284.895,1291.483c-38.488-64.7-46.639-186.661-47.878-211.013,3.2,6.811,6.81,14.549,10.628,23.011,21.978,47.877,55.616,117.424,118.456,175.826a434.748,434.748,0,0,0,69.546,51.283c31.471,18.057,68,33.122,110.407,43.337,86.056,20.534,168.707,5.573,219.474-27.137,24.558-15.891,39.932-36.528,44.576-59.847,9.39-46.949-9.389-92.144-55.926-134.244-44.266-41.274-122.171-96.787-241.865-126.3-205.028-50.457-303.982-162.309-285-299.235,10.009-71.714,49.632-131.87,117.837-178.717,42.2-28.891,80.69-42.822,127.846-48.806,5.469-.619,11.04-1.135,16.716-1.651,22.8-1.961,47.775-2.58,76.254-2.167,53.655,1.342,105.867,10.215,145.387,17.851,41.067,7.842,66.244,17.541,89.255,27.241,12.279,4.85,28.582-1.754,32.5-14.343l5.056-18.676h18.883c-2.064,57.577-51.489,86.778-58.3,90.493C334.527,301.013,44.371,805.276,547.4,926.312,1109.34,1061.381,874.492,1620.848,284.895,1291.483Z" transform="translate(1992.01 -21970.713)" fill="none" stroke="#fff" stroke-linejoin="round" stroke-width="2"/>
      <path id="Path_51" data-name="Path 51" d="M339.131,496.886V772.6H320.145c-.1-.206-.1-.31-.206-.516,8.048-73.261-35.392-183.153-39.21-184.7.1-.1-.309.1,0,0,6.81-3.715,56.236-32.916,58.3-90.493Z" transform="translate(2510.037 -21959.697)" fill="none" stroke="#fff" stroke-linejoin="round" stroke-width="2"/>
      <path id="Path_52" data-name="Path 52" d="M291.206,763.761s-66.864,29.1-66.864,104.217V552.336h18.78c.1.1.1.31.206.413C244.566,577.1,252.718,699.065,291.206,763.761Z" transform="translate(1985.7 -21442.994)" fill="none" stroke="#fff" stroke-linejoin="round" stroke-width="2"/>
      <path id="Path_53" data-name="Path 53" d="M908.353,1185.9c-28.685,147.761-133.727,213.7-340.818,213.7-13.724,0-26.931-.206-39.52-.619-5.675-.206-11.041-.619-16.3-1.238-45.3-3.405-88.119-10.834-122.067-17.335-43.854-8.461-81.516-18.883-106.074-29.2a24.218,24.218,0,0,0-32.091,15.374l-6.294,19.915H224.342c0-75.118,66.864-104.216,66.864-104.216,589.6,329.365,824.445-230.1,262.5-365.171-503.025-121.035-212.87-625.3,251.358-327.921-.31.1.1-.1,0,0,3.818,1.548,47.258,111.44,39.21,184.7C816.209,710.015,743.258,564.215,571.249,519.02a262.179,262.179,0,0,0-75.221-8.77c-5.572.206-11.144.413-16.716.928A249.126,249.126,0,0,0,402.748,531.4c-47.775,27.138-61.085,69.753-43.338,138.164,21.153,76.461,74.087,120.211,212.354,150.959C848.712,883.572,946.222,989.439,908.353,1185.9Z" transform="translate(1985.7 -21961.508)" fill="none" stroke="#fff" stroke-linejoin="round" stroke-width="2"/>
      <path id="Path_87" data-name="Path 87" d="M224.338,583.022" transform="translate(1985.662 -21157.045)" fill="none" stroke="#fff" stroke-linejoin="round" stroke-width="2"/>
      <path id="Path_88" data-name="Path 88" d="M224.338,583.022" transform="translate(1985.662 -21157.045)" fill="none" stroke="#fff" stroke-linejoin="round" stroke-width="2"/>
    </g>
    <g id="Ellipse_4" data-name="Ellipse 4" transform="translate(1071 869)" fill="none" stroke="#fff" stroke-width="2">
      <circle cx="78.5" cy="78.5" r="78.5" stroke="none"/>
      <circle cx="78.5" cy="78.5" r="77.5" fill="none"/>
    </g>
  </g>
</svg>
